<svg xmlns="http://www.w3.org/2000/svg" xmlns:xlink="http://www.w3.org/1999/xlink" version="1.1" id="圖層_1" x="0px" y="0px" width="35px" height="35px" viewBox="0 0 35 35" style="enable-background:new 0 0 35 35;" xml:space="preserve">
<style type="text/css">
	.st0{fill:#4A6491;}
</style>
<g>
	<path class="st0" d="M31.8,6.5c-0.2-0.3-0.6-0.4-0.8-0.4H4.1c-0.2,0-0.7,0.1-0.8,0.4l0,21.8l0,0.1c0.1,0.2,0.3,0.4,0.8,0.4H31   c0.2,0,0.7-0.1,0.8-0.4l0-21.8L31.8,6.5z M30.3,18.2v3.9H27v-3.9H30.3z M30.2,12.9v3.9h-3.3v-3.9H30.2z M30.3,23.5v3.9H27v-3.9   H30.3z M30.3,7.6v3.8L27,11.5V7.6H30.3z M25.5,7.6v19.7h-16V7.6H25.5z M8,23.6v3.8H4.7v-3.8H8z M8,7.6v3.8l-3.3,0V7.6H8z M8,12.9   v3.9H4.6v-3.9H8z M8,18.2v3.9H4.6v-3.9H8z"/>
	<path class="st0" d="M15.5,21.6h0.1l0.1-0.1c0,0,0,0,0.1-0.1c0.1,0,0.2-0.1,0.3-0.2c1.7-1,3.4-2.1,5.1-3.2c0.3-0.2,0.4-0.4,0.4-0.6   c0-0.2-0.1-0.5-0.4-0.7c-0.8-0.4-1.5-0.9-2.2-1.4c-0.9-0.6-1.9-1.2-2.9-1.8L16,13.5h-0.1c-0.1,0-0.2-0.1-0.3-0.1   c-0.5,0-0.9,0.3-0.9,0.9V21l0,0.1C14.9,21.4,15.1,21.6,15.5,21.6z M16.4,19.5v-4.1l3.2,2L16.4,19.5z"/>
</g>
</svg>