<svg xmlns="http://www.w3.org/2000/svg" xmlns:xlink="http://www.w3.org/1999/xlink" version="1.1" id="圖層_1" x="0px" y="0px" width="35px" height="35px" viewBox="0 0 35 35" style="enable-background:new 0 0 35 35;" xml:space="preserve">
<style type="text/css">
	.st0{fill:#4A6491;}
</style>
<path id="路径_1" class="st0" d="M27.6,6.9C24.8,4,21,2.5,17,2.5c-8.3,0-15,6.7-15,15c0,4,1.6,7.8,4.4,10.6S13,32.5,17,32.5  s7.8-1.6,10.6-4.4S32,21.5,32,17.5S30.4,9.7,27.6,6.9z M17,30.8c-7.4,0-13.3-6-13.3-13.3S9.7,4.2,17,4.2s13.3,6,13.3,13.3  C30.3,24.9,24.4,30.8,17,30.8z"/>
<g>
	<path class="st0" d="M23,20.2c0-3.7-4.4-4.4-4.6-4.5c-0.8-0.2-3.1-1.1-2.9-2.1c0.1-0.3,0.3-0.7,0.9-0.9c1.3-0.5,3.9,0.1,5.2,0.8   l1.2-2.6c-1-0.4-3.2-1-4-0.9l0,0V8.4h-2.3V10l0,0c-0.2,0-3.8-0.2-4.3,3.2c-0.6,3.4,2.5,4.6,4.2,5.2l0.5,0.2   c1.4,0.5,2.5,0.9,2.5,2.1c0,0.2-0.1,0.4-0.4,0.6c-1.1,0.6-4.5,0.2-6.9-1v3c0.5,0.3,2.4,1.2,4.4,1.1l0,0v2.1h0.2v0h1.8v0h0.2v-2.3   C18.9,24.1,23,23.9,23,20.2z"/>
</g>
</svg>