<svg xmlns="http://www.w3.org/2000/svg" xmlns:xlink="http://www.w3.org/1999/xlink" version="1.1" id="圖層_1" x="0px" y="0px" width="35px" height="35px" viewBox="0 0 35 35" style="enable-background:new 0 0 35 35;" xml:space="preserve">
<style type="text/css">
	.st0{fill:#3D5F7D;}
</style>
<path id="icon_menu_card" class="st0" d="M30.5,5.5h-26c-2.1,0.1-3.8,1.9-3.8,4v16.3c0,2,1.5,3.6,3.5,3.7h26.6c2,0,3.6-1.7,3.5-3.7  V9.3C34.2,7.3,32.6,5.7,30.5,5.5z M4.5,7.4h26c1,0.1,1.8,0.9,1.9,1.9v2.2H2.5v-2C2.5,8.9,3.3,7.4,4.5,7.4z M30.8,27.6H4.2  c-0.9-0.1-1.7-0.9-1.6-1.8V15.4h29.9v10.4C32.5,26.8,31.8,27.6,30.8,27.6L30.8,27.6z"/>
</svg>