<svg xmlns="http://www.w3.org/2000/svg" xmlns:xlink="http://www.w3.org/1999/xlink" version="1.1" id="圖層_1" x="0px" y="0px" width="35px" height="35px" viewBox="0 0 35 35" style="enable-background:new 0 0 35 35;" xml:space="preserve">
<style type="text/css">
	.st0{fill:#3D5F7D;}
</style>
<g>
	<path class="st0" d="M17.5,2.2c-4.6,0-8.4,3.8-8.4,8.4c0,2.9,1.4,5.4,3.6,6.9C6.6,19.4,1.9,26.1,1.9,31.8c0,0.6,0.4,1,1,1   s1-0.4,1-1C3.9,26.2,9.6,19,16,19h1.5c4.6,0,8.4-3.8,8.4-8.4S22.1,2.2,17.5,2.2z M17.5,17c-3.5,0-6.4-2.9-6.4-6.4s2.9-6.4,6.4-6.4   s6.4,2.9,6.4,6.4S21,17,17.5,17z"/>
	<path class="st0" d="M26.8,20c-0.4-0.3-1.1-0.3-1.4,0.2c-0.3,0.4-0.3,1.1,0.2,1.4c3.3,2.6,5.5,6.8,5.5,10.2c0,0.6,0.4,1,1,1   s1-0.4,1-1C33.1,27.8,30.6,23,26.8,20z"/>
</g>
</svg>