<svg xmlns="http://www.w3.org/2000/svg" xmlns:xlink="http://www.w3.org/1999/xlink" version="1.1" id="icon_login" x="0px" y="0px" width="35px" height="35px" viewBox="0 0 35 35" style="enable-background:new 0 0 35 35;" xml:space="preserve">
<style type="text/css">
	.st0{fill:#3D5F7D;}
</style>
<g id="组_6" transform="translate(0)">
	<path id="路径_8" class="st0" d="M27.1,13.6H26V9.9c0-4.7-3.8-8.5-8.5-8.5c0,0,0,0,0,0l0,0C12.8,1.4,9,5.2,9,9.9c0,0,0,0,0,0v3.7   H7.9c-1.3,0-2.3,1-2.3,2.3c0,0,0,0,0,0v15.3c0,1.3,1,2.3,2.3,2.3c0,0,0,0,0,0h19.3c1.3,0,2.3-1,2.3-2.3c0,0,0,0,0,0V15.9   C29.5,14.6,28.4,13.6,27.1,13.6C27.2,13.6,27.2,13.6,27.1,13.6z M10.5,9.9c0-3.9,3.2-7,7.1-6.9c3.8,0,6.9,3.1,6.9,6.9v3.7h-14   L10.5,9.9z M28,31.3c0,0.5-0.4,0.9-0.9,0.9H7.8c-0.5,0-0.9-0.4-0.9-0.9V15.9C7,15.4,7.4,15,7.8,15h19.3c0.5,0,0.9,0.4,0.9,0.9V31.3   z"/>
	<path id="路径_9" class="st0" d="M17.5,24c-0.7,0-1.2,0.5-1.2,1.2c0,0,0,0,0,0v3.5c0,0.7,0.5,1.2,1.2,1.2c0,0,0,0,0,0   c0.7,0,1.2-0.6,1.2-1.2v-3.5C18.7,24.5,18.2,24,17.5,24C17.5,24,17.5,24,17.5,24z"/>
</g>
<g id="组_7" transform="translate(0)">
	<path id="路径_10" class="st0" d="M27.1,13.6H26V9.9c0-4.7-3.8-8.5-8.5-8.5c0,0,0,0,0,0l0,0C12.8,1.4,9,5.2,9,9.9c0,0,0,0,0,0   v3.7H7.9c-1.3,0-2.3,1-2.3,2.3c0,0,0,0,0,0v15.3c0,1.3,1,2.3,2.3,2.3c0,0,0,0,0,0h19.3c1.3,0,2.3-1,2.3-2.3c0,0,0,0,0,0V15.9   C29.5,14.6,28.4,13.6,27.1,13.6C27.2,13.6,27.2,13.6,27.1,13.6z M10.5,9.9c0-3.9,3.2-7,7.1-6.9c3.8,0,6.9,3.1,6.9,6.9v3.7h-14   L10.5,9.9z M28,31.3c0,0.5-0.4,0.9-0.9,0.9H7.8c-0.5,0-0.9-0.4-0.9-0.9V15.9C7,15.4,7.4,15,7.8,15h19.3c0.5,0,0.9,0.4,0.9,0.9V31.3   z"/>
	<path id="路径_11" class="st0" d="M17.5,24c-0.7,0-1.2,0.5-1.2,1.2c0,0,0,0,0,0v3.5c0,0.7,0.5,1.2,1.2,1.2c0,0,0,0,0,0   c0.7,0,1.2-0.6,1.2-1.2v-3.5C18.7,24.5,18.2,24,17.5,24C17.5,24,17.5,24,17.5,24z"/>
</g>
</svg>