<svg xmlns="http://www.w3.org/2000/svg" xmlns:xlink="http://www.w3.org/1999/xlink" version="1.1" id="组_76" x="0px" y="0px" width="35px" height="35px" viewBox="0 0 35 35" style="enable-background:new 0 0 35 35;" xml:space="preserve">
<style type="text/css">
	.st0{fill:#4A6491;}
</style>
<g>
	<rect id="矩形_4" x="9.9" y="10" class="st0" width="15.4" height="1.8"/>
	<path class="st0" d="M14.8,31.4H6.2c-0.7,0-1.3-0.6-1.4-1.4V4.8c0-0.7,0.6-1.3,1.4-1.4h22.6c0.7,0,1.3,0.6,1.4,1.4v12.1   c0.6,0.3,1.2,0.6,1.8,1V4.8c-0.1-1.7-1.5-3-3.1-3H6.2C4.6,1.7,3.2,3,3.1,4.6c0,0.1,0,0.2,0,0.2V30c0,1.7,1.3,3.1,3,3.2h0.1h9.5   C15.4,32.6,15.1,32,14.8,31.4z"/>
	<path class="st0" d="M14.9,23.2h-5V25h4.5C14.5,24.4,14.7,23.8,14.9,23.2z"/>
	<path class="st0" d="M22.1,16.5H9.9v1.8h8.8C19.7,17.5,20.8,16.9,22.1,16.5z"/>
	<g>
		<path class="st0" d="M22.5,22.9c1.8-1.6,4.4-2,6.5-0.9l0.4,0.2l0.8-1.5l-0.3-0.2c-2.7-1.4-6.1-1-8.4,1.2c-2.7,2.4-3.3,6.4-1.5,9.5    L18,32.9l4.6,0.4l0.1-4.6l-1.6,1.5C20,27.7,20.5,24.8,22.5,22.9z"/>
		<path class="st0" d="M35,22l-4.6-0.4l-0.1,4.6l1.6-1.5c1.2,2.4,0.7,5.3-1.3,7.1c-1.6,1.4-3.8,1.9-5.8,1.2l-0.4-0.1l-0.6,1.6    l0.4,0.1c0.9,0.3,1.8,0.4,2.4,0.4c4.2,0,7.6-3.4,7.6-7.6c0-1.3-0.4-2.7-1-3.9L35,22z"/>
	</g>
</g>
</svg>