<svg xmlns="http://www.w3.org/2000/svg" xmlns:xlink="http://www.w3.org/1999/xlink" version="1.1" id="Capa_1" x="0px" y="0px" width="35px" height="35px" viewBox="0 0 35 35" style="enable-background:new 0 0 35 35;" xml:space="preserve">
<style type="text/css">
	.st0{fill:#4A6491;}
</style>
<g>
	<path class="st0" d="M16.7,24c0,0.5,0.4,0.8,0.8,0.8s0.8-0.4,0.8-0.8V5.9V5.5l0.4,0.4l3.6,3.6c0.2,0.1,0.4,0.3,0.6,0.3   c0.3,0,0.5-0.1,0.7-0.3c0.4-0.4,0.4-0.8,0-1.3l-5.4-5.4c-0.2-0.2-0.4-0.3-0.6-0.3c-0.2,0-0.5,0.1-0.7,0.3l0,0l0,0l-5.5,5.3   c-0.1,0.2-0.3,0.4-0.3,0.7c0,0.3,0.1,0.5,0.3,0.6c0.2,0.1,0.4,0.3,0.6,0.3s0.5-0.1,0.6-0.3l3.6-3.6l0.4-0.4v0.5L16.7,24L16.7,24z"/>
	<path class="st0" d="M9.8,13.3H6.6c-1.7,0-3.1,1.4-3.1,3.1v2.1v3.5v7.6c0,1.7,1.4,3.1,3.1,3.1h21.8c1.7,0,3.1-1.4,3.1-3.1V22v-3.5   v-2.1c0-1.7-1.4-3.1-3.1-3.1h-3.3c-0.5,0-0.8,0.4-0.8,0.8c0,0.5,0.4,0.8,0.8,0.8h3.3c0.7,0,1.3,0.6,1.3,1.3v2.1v3.5v7.6   c0,0.7-0.6,1.3-1.3,1.3H6.6c-0.7,0-1.3-0.6-1.3-1.3V22v-3.5v-2.1c0-0.7,0.6-1.3,1.3-1.3h3.3c0.5,0,0.8-0.4,0.8-0.8   C10.8,13.7,10.4,13.3,9.8,13.3z"/>
</g>
</svg>