<svg xmlns="http://www.w3.org/2000/svg" xmlns:xlink="http://www.w3.org/1999/xlink" version="1.1" id="icon_about" x="0px" y="0px" width="35px" height="35px" viewBox="0 0 35 35" style="enable-background:new 0 0 35 35;" xml:space="preserve">
<style type="text/css">
	.st0{fill:#4A6491;}
</style>
<path id="路径_1" class="st0" d="M28.1,6.9C25.3,4,21.5,2.5,17.5,2.5c-8.3,0-15,6.7-15,15c0,4,1.6,7.8,4.4,10.6  c2.8,2.8,6.6,4.4,10.6,4.4c4,0,7.8-1.6,10.6-4.4c2.8-2.8,4.4-6.6,4.4-10.6C32.5,13.5,30.9,9.7,28.1,6.9z M17.5,30.8  c-7.4,0-13.3-6-13.3-13.3s6-13.3,13.3-13.3s13.3,6,13.3,13.3C30.8,24.9,24.9,30.8,17.5,30.8z"/>
<g id="组_2" transform="translate(13.544 11.542)">
	<g id="组_1">
		<rect id="矩形_1" x="2.5" y="2.5" class="st0" width="3" height="12.5"/>
	</g>
</g>
<g id="组_4" transform="translate(13.544 6.138)">
	<g id="组_3">
		<rect id="矩形_2" x="2.5" y="2.5" class="st0" width="3" height="3"/>
	</g>
</g>
</svg>