<svg xmlns="http://www.w3.org/2000/svg" xmlns:xlink="http://www.w3.org/1999/xlink" version="1.1" id="圖層_1" x="0px" y="0px" width="35px" height="35px" viewBox="0 0 35 35" style="enable-background:new 0 0 35 35;" xml:space="preserve">
<style type="text/css">
	.st0{fill:#4A6491;}
</style>
<g id="icon_setting" transform="translate(0)">
	<path id="路径_22" class="st0" d="M31.9,14.2l-2.3-0.4c-0.2-0.7-0.5-1.5-0.9-2.2l1.3-1.9c0.6-0.8,0.5-1.9-0.2-2.5l-2-2   c-0.4-0.3-0.9-0.5-1.4-0.5c-0.4,0-0.8,0.1-1.1,0.4l-1.9,1.3c-0.7-0.5-1.5-0.8-2.3-1l-0.3-2.3c-0.2-0.9-1-1.7-1.9-1.7h-2.8   c-1,0-1.8,0.7-2,1.7l-0.4,2.3c-0.7,0.2-1.5,0.5-2.2,0.9L9.6,5C9.3,4.7,8.9,4.6,8.5,4.6c-0.5,0-1,0.2-1.4,0.6L5.1,7.2   C4.4,7.9,4.3,9,4.9,9.8l1.3,1.9c-0.4,0.7-0.7,1.4-0.9,2.2l-2.3,0.3c-0.9,0.2-1.6,1-1.7,2V19c0,1,0.7,1.8,1.7,1.9l2.3,0.5   c0.2,0.8,0.5,1.5,0.9,2.2l-1.3,1.9c-0.6,0.8-0.5,1.9,0.2,2.5l2.1,1.9c0.4,0.4,0.9,0.6,1.4,0.6c0.4,0,0.8-0.1,1.1-0.4l1.9-1.3   c0.7,0.4,1.4,0.7,2.1,0.9l0.4,2.3c0.2,0.9,1,1.7,1.9,1.7h2.8c1,0,1.8-0.7,1.9-1.7l0.4-2.3c0.7-0.2,1.5-0.5,2.2-0.9l1.9,1.3   c0.3,0.3,0.7,0.4,1.1,0.4c0.5,0,1-0.2,1.4-0.6l2-2c0.7-0.7,0.8-1.8,0.2-2.5l-1.3-1.9c0.4-0.7,0.7-1.4,0.9-2.2l2.3-0.4   c0.9-0.2,1.7-1,1.7-1.9v-2.8C33.5,15.2,32.8,14.3,31.9,14.2z M31.7,19L31.7,19c0,0.1-0.1,0.2-0.1,0.2l-2.8,0.4   c-0.4,0-0.7,0.3-0.7,0.7c-0.3,1-0.7,1.9-1.1,2.8c-0.2,0.3-0.2,0.7,0.1,0.9l1.7,2.3c0.1,0.1,0.1,0.2,0,0.3l-2,2   c-0.1,0.1-0.1,0.1-0.1,0.1s-0.1,0-0.1-0.1l-2.3-1.7c-0.3-0.2-0.6-0.2-0.9-0.1c-0.9,0.5-1.8,0.9-2.8,1.1c-0.4,0.1-0.6,0.4-0.7,0.7   l-0.6,2.9c0,0.1-0.1,0.1-0.2,0.1h-2.8c-0.1,0-0.2-0.1-0.2-0.1l-0.5-2.8c0-0.4-0.3-0.7-0.7-0.7c-0.9-0.3-1.9-0.7-2.7-1.1   c-0.1-0.1-0.3-0.1-0.5-0.1c-0.2,0-0.4,0.1-0.5,0.2l-2.4,1.7c-0.1,0-0.1,0.1-0.1,0.1c-0.1,0-0.1,0-0.1-0.1l-2-2   c-0.1-0.1-0.1-0.1,0-0.3l1.7-2.3c0.2-0.3,0.2-0.6,0.1-0.9c-0.5-0.9-0.9-1.8-1.1-2.8c-0.1-0.3-0.4-0.6-0.7-0.7l-2.9-0.5   c-0.1,0-0.1-0.1-0.1-0.2v-2.9c0-0.1,0.1-0.2,0.1-0.2l2.8-0.5c0.4,0,0.7-0.3,0.7-0.7c0.3-1,0.7-1.9,1.1-2.8c0.2-0.3,0.2-0.7-0.1-0.9   L6.3,8.7c-0.1-0.1-0.1-0.2,0-0.3l2-2c0.1-0.1,0.1-0.1,0.1-0.1s0.1,0,0.1,0.1l2.3,1.7c0.3,0.2,0.6,0.2,0.9,0.1   c0.9-0.5,1.8-0.9,2.8-1.1c0.3-0.1,0.6-0.4,0.7-0.7l0.6-2.9c0-0.1,0.1-0.1,0.2-0.1h2.8c0.1,0,0.2,0.1,0.2,0.1l0.5,2.8   c0,0.4,0.3,0.7,0.7,0.7c1,0.3,2,0.6,2.9,1.1c0.3,0.2,0.7,0.2,0.9-0.1l2.3-1.7c0.1,0,0.1-0.1,0.1-0.1c0.1,0,0.1,0,0.1,0.1l2,2   c0.1,0.1,0.1,0.1,0,0.3L27,10.9c-0.2,0.3-0.2,0.6-0.1,0.9c0.5,0.9,0.9,1.8,1.1,2.8c0.1,0.3,0.4,0.6,0.7,0.7l2.8,0.5   c0.1,0,0.1,0.1,0.1,0.2L31.7,19L31.7,19z"/>
	<path id="路径_23" class="st0" d="M17.5,10.6c-3.8,0-6.9,3.1-6.9,6.9c0,3.8,3.1,6.9,6.9,6.9c3.8,0,6.9-3.1,6.9-6.9c0,0,0,0,0,0   C24.4,13.7,21.3,10.6,17.5,10.6C17.5,10.6,17.5,10.6,17.5,10.6z M17.5,22.6c-2.8,0-5.1-2.3-5.1-5.1s2.3-5.1,5.1-5.1   s5.1,2.3,5.1,5.1C22.6,20.3,20.3,22.6,17.5,22.6z"/>
</g>
</svg>