<svg xmlns="http://www.w3.org/2000/svg" xmlns:xlink="http://www.w3.org/1999/xlink" version="1.1" id="圖層_1" x="0px" y="0px" width="35px" height="35px" viewBox="0 0 35 35" style="enable-background:new 0 0 35 35;" xml:space="preserve">
<style type="text/css">
	.st0{display:none;fill:#FFFFFF;}
	.st1{fill:#4A6491;}
</style>
<rect x="-8" y="12.7" class="st0" width="26" height="18.3"/>
<g>
	<path class="st1" d="M17.6,5.3c-4.3,0-7.8,3.5-7.8,7.8c0,1.2,0.3,2.4,0.8,3.5c0.2,0.3,0.5,0.5,0.9,0.5c0.1,0,0.3-0.1,0.5-0.1   c0.5-0.3,0.7-0.9,0.5-1.3c-0.4-0.8-0.6-1.7-0.6-2.6c0-3.2,2.6-5.8,5.8-5.8c0.5,0,1-0.5,1-1S18.2,5.3,17.6,5.3z"/>
	<path class="st1" d="M29.6,11.1C28.4,4,21.4-0.5,14.5,1.3C8.3,2.8,4.3,8.9,5.4,15.1c0.7,4,2.9,6.9,6.4,8.9c0.3,0.2,0.4,0.3,0.4,0.7   c0,1.1,0,5.5,0,6.7c0,1.4,1.1,2.7,2.5,2.7c1.9,0.1,3.8,0,5.7,0c0.1,0,0.2,0,0.3-0.1c1.3-0.3,2.1-1.5,2.1-3c0-2.1,0-4.2,0-6.3   c0-0.4,0.1-0.6,0.5-0.8C28,21.4,30.6,16.2,29.6,11.1z M20.8,31.5c0,0.2-0.4,0.6-0.7,0.6c-1.7,0.1-3.5,0.1-5.2,0   c-0.4,0-0.7-0.3-0.7-0.7c0-0.9,0-1.9,0-2.9c2.3,0,4.4,0,6.7,0C20.8,29.5,20.8,30.5,20.8,31.5z M21.8,22.5c-0.7,0.3-0.9,0.7-0.9,1.5   c0.1,0.8,0,1.6,0,2.5c-2.3,0-4.5,0-6.7,0c0-0.9,0-1.7,0-2.6c0-0.6-0.3-1-0.8-1.3c-3.5-1.7-5.6-4.4-6.1-8.2   c-0.6-4.3,1.5-8.3,5.3-10.3c4.9-2.7,11.2-0.8,13.9,4.2C29.4,13.4,27.2,20,21.8,22.5z"/>
</g>
</svg>