<svg xmlns="http://www.w3.org/2000/svg" xmlns:xlink="http://www.w3.org/1999/xlink" version="1.1" id="icon_menu_help" x="0px" y="0px" width="35px" height="35px" viewBox="0 0 35 35" style="enable-background:new 0 0 35 35;" xml:space="preserve">
<style type="text/css">
	.st0{fill:#4A6491;}
</style>
<path id="路径_16" class="st0" d="M28.1,6.9C22.2,1,12.7,1,6.9,6.9S1,22.2,6.9,28.1l0,0c2.8,2.8,6.6,4.4,10.6,4.4  c4,0,7.8-1.6,10.6-4.4c2.8-2.8,4.4-6.6,4.4-10.6C32.5,13.5,30.9,9.7,28.1,6.9z M17.5,30.8c-7.4,0-13.3-6-13.3-13.3s6-13.3,13.3-13.3  s13.3,6,13.3,13.3C30.8,24.9,24.9,30.8,17.5,30.8z"/>
<g id="组_14" transform="translate(9.072 6.028)">
	<g id="组_11" transform="translate(4.472 14.988)">
		<g id="组_10">
			<rect id="矩形_3" x="2.5" y="2.5" class="st0" width="3" height="3"/>
		</g>
	</g>
	<g id="组_13">
		<g id="组_12">
			<path id="路径_17" class="st0" d="M14.3,7.1c-0.8-3.2-4-5.2-7.2-4.4C4.4,3.3,2.5,5.8,2.5,8.5h3c0.2-1.7,1.7-2.8,3.4-2.6     c1.6,0.2,2.7,1.6,2.6,3.1c-0.3,1.5-1.6,2.6-3.1,2.5c-0.7,0-1.3,0.6-1.3,1.3l0,0v3.1h3v-1.7C13.1,13.4,15,10.2,14.3,7.1z"/>
		</g>
	</g>
</g>
</svg>