<svg xmlns="http://www.w3.org/2000/svg" xmlns:xlink="http://www.w3.org/1999/xlink" version="1.1" id="组_76" x="0px" y="0px" width="35px" height="35px" viewBox="0 0 35 35" style="enable-background:new 0 0 35 35;" xml:space="preserve">
<style type="text/css">
	.st0{fill:#3D5F7D;}
</style>
<path id="路径_18" class="st0" d="M28.9,1.8H6.2C4.6,1.7,3.2,3,3.1,4.6c0,0.1,0,0.2,0,0.2V30c0,1.7,1.3,3.1,3,3.2c0,0,0.1,0,0.1,0  h22.6c1.7,0,3.1-1.3,3.2-3c0,0,0-0.1,0-0.1V4.8C31.9,3.1,30.5,1.8,28.9,1.8z M30.2,30c0,0.7-0.6,1.3-1.4,1.4H6.2  c-0.7,0-1.3-0.6-1.4-1.4V4.8c0-0.7,0.6-1.3,1.4-1.4h22.6c0.7,0,1.3,0.6,1.4,1.4L30.2,30L30.2,30z"/>
<rect id="矩形_4" x="9.9" y="10" class="st0" width="15.4" height="1.8"/>
<rect id="矩形_5" x="9.9" y="16.5" class="st0" width="15.4" height="1.8"/>
<rect id="矩形_6" x="9.9" y="23.2" class="st0" width="9.3" height="1.8"/>
</svg>